<?xml version="1.0" encoding="UTF-8"?>
<svg xmlns="http://www.w3.org/2000/svg" version="1.1" viewBox="0 0 50.01 50" width="50.01" height="50">
  <path fill="#1a1a1a" d="M43.12,23.3h0s-3.52,1.06-3.52,1.06c-.03,0-.71.14-1.24,1.22l-.05.09c-.44.9-.56,1.14-2.43,1.87-1.99.78-20.67,7.79-20.85,7.85-.06.02-5.9,2.03-8.98,1.81-.93-.07-1.56-.35-1.87-.85-.25-.4-.25-.87-.2-1.22.02,1,1,1.64,2.51,1.64,2.08,0,5.26-1.17,8.83-4.34,1.45-1.28,5.99-3.13,12.09-5.06,4.11-1.29,8.59-2.62,12.18-3.66.2-.38.45-.81.53-.95l-.02.02c.11-.16.25-.29.52-.38.06-.03,5.67-1.46,5.67-1.46v-10.1c-6.31-.35-9.05-.34-11.63-.16-6.03.43-8.81,1.66-11.12,2.6,2.82-.3,6.77-.23,7.98-.12,1.46.12,4.05.59,2.32,2.31-1.36,1.35-6.43,4.57-6.43,4.57-2.87,1.71-5.02,2.55-7.06,2.73-2.04.18-6.5.28-6.93-.5-2.5,2.33-6.08,5.9-8.16,9.23-.03.04-.11.17-.22.35-.03.06-.06.13-.09.19-.44.72-1.18,2.36-1.21,2.44-.02.05-.46,1.18.11,2.08.38.61,1.12.96,2.18,1.04.17.01.35.02.54.02,3.24,0,8.37-1.77,8.6-1.85.19-.07,18.87-7.08,20.86-7.86,1.94-.76,2.15-1.06,2.64-2.07l.05-.09c.43-.89.95-1.01.98-1.01l3.56-1.07c-.24.59-.9,2.19-.97,2.31-.1.23-.2.36-.49.5,0,0-1.14.46-1.16.47-5.8,2.42-18.71,7.65-27.75,10.31-4.97,1.48-8.23,1.43-9.08.07.1.25.17.46.34.81.05.12.24.36.51.55.79.44,1.62.68,2.5.73,1.56.12,3.81-.14,6.97-1.19,2.47-.82,20.05-7.5,32.19-12.77v-3.17c-.86.27-2.05.64-3.18,1Z"/>
</svg>
